# Blender v2.79 (sub 0) OBJ File: ''
# www.blender.org
mtllib box.mtl
o Cube
v 0.090278 -0.075377 -0.263127
v 0.090278 -0.075377 1.736873
v -1.909722 -0.075377 1.736873
v -1.909721 -0.075377 -0.263127
v 0.090279 1.924623 -0.263126
v 0.090277 1.924623 1.736874
v -1.909722 1.924623 1.736873
v -1.909722 1.924623 -0.263127
v 0.090278 -0.075377 -0.263127
v 0.090278 -0.075377 -0.263127
v 0.090278 -0.075377 1.736873
v 0.090278 -0.075377 1.736873
v -1.909721 -0.075377 -0.263127
v -1.909721 -0.075377 -0.263127
v 0.090279 1.924623 -0.263126
v 0.090279 1.924623 -0.263126
v -1.909722 -0.075377 1.736873
v -1.909722 -0.075377 1.736873
v 0.090277 1.924623 1.736874
v 0.090277 1.924623 1.736874
v -1.909722 1.924623 1.736873
v -1.909722 1.924623 1.736873
v -1.909722 1.924623 -0.263127
v -1.909722 1.924623 -0.263127
vn 0.0000 -1.0000 0.0000
vn 0.0000 1.0000 0.0000
vn 1.0000 0.0000 0.0000
vn -0.0000 -0.0000 1.0000
vn -1.0000 -0.0000 -0.0000
vn 0.0000 0.0000 -1.0000
usemtl Material
s off
f 9//1 11//1 17//1 13//1
f 16//2 24//2 22//2 20//2
f 10//3 15//3 19//3 12//3
f 2//4 6//4 21//4 18//4
f 3//5 7//5 23//5 14//5
f 5//6 1//6 4//6 8//6
